<svg xmlns="http://www.w3.org/2000/svg" xmlns:xlink="http://www.w3.org/1999/xlink" width="500" zoomAndPan="magnify" viewBox="0 0 375 374.999991" height="500" preserveAspectRatio="xMidYMid meet" version="1.0"><defs><g/><clipPath id="id1"><path d="M 94.703125 49.460938 L 241 49.460938 L 241 196 L 94.703125 196 Z M 94.703125 49.460938 " clip-rule="nonzero"/></clipPath><clipPath id="id2"><path d="M 133 64 L 279.953125 64 L 279.953125 210.710938 L 133 210.710938 Z M 133 64 " clip-rule="nonzero"/></clipPath></defs><rect x="-37.5" width="450" fill="rgb(100%, 100%, 100%)" y="-37.499999" height="449.999989" fill-opacity="1"/><rect x="-37.5" width="450" fill="rgb(100%, 100%, 100%)" y="-37.499999" height="449.999989" fill-opacity="1"/><rect x="-37.5" width="450" fill="rgb(100%, 100%, 100%)" y="-37.499999" height="449.999989" fill-opacity="1"/><rect x="-37.5" width="450" fill="rgb(100%, 100%, 100%)" y="-37.499999" height="449.999989" fill-opacity="1"/><g fill="rgb(72.549438%, 18.429565%, 15.689087%)" fill-opacity="1"><g transform="translate(111.832028, 265.374811)"><g><path d="M 8.546875 0 L 4.296875 0 C 3.597656 0 3.25 -0.347656 3.25 -1.046875 L 3.25 -31.09375 C 3.25 -31.800781 3.597656 -32.15625 4.296875 -32.15625 L 20.25 -32.15625 C 20.914062 -32.15625 21.25 -31.800781 21.25 -31.09375 L 21.25 -27.703125 C 21.25 -27.003906 20.914062 -26.65625 20.25 -26.65625 L 10.203125 -26.65625 C 9.796875 -26.65625 9.59375 -26.46875 9.59375 -26.09375 L 9.59375 -18.34375 C 9.59375 -17.945312 9.796875 -17.75 10.203125 -17.75 L 18.75 -17.75 C 19.445312 -17.75 19.796875 -17.398438 19.796875 -16.703125 L 19.796875 -13.34375 C 19.796875 -12.613281 19.445312 -12.25 18.75 -12.25 L 10.203125 -12.25 C 9.796875 -12.25 9.59375 -12.066406 9.59375 -11.703125 L 9.59375 -1.046875 C 9.59375 -0.347656 9.242188 0 8.546875 0 Z M 8.546875 0 "/></g></g></g><g fill="rgb(72.549438%, 18.429565%, 15.689087%)" fill-opacity="1"><g transform="translate(134.328548, 265.374811)"><g><path d="M 12 -5.5 L 15.546875 -5.5 C 16.617188 -5.5 17.378906 -5.722656 17.828125 -6.171875 C 18.273438 -6.617188 18.5 -7.378906 18.5 -8.453125 L 18.5 -23.703125 C 18.5 -24.765625 18.273438 -25.519531 17.828125 -25.96875 C 17.378906 -26.425781 16.617188 -26.65625 15.546875 -26.65625 L 12 -26.65625 C 10.9375 -26.65625 10.1875 -26.425781 9.75 -25.96875 C 9.3125 -25.519531 9.09375 -24.765625 9.09375 -23.703125 L 9.09375 -8.453125 C 9.09375 -7.378906 9.3125 -6.617188 9.75 -6.171875 C 10.1875 -5.722656 10.9375 -5.5 12 -5.5 Z M 16.59375 0 L 11 0 C 8.363281 0 6.328125 -0.695312 4.890625 -2.09375 C 3.460938 -3.5 2.75 -5.519531 2.75 -8.15625 L 2.75 -24 C 2.75 -26.632812 3.460938 -28.648438 4.890625 -30.046875 C 6.328125 -31.453125 8.363281 -32.15625 11 -32.15625 L 16.59375 -32.15625 C 19.226562 -32.15625 21.257812 -31.453125 22.6875 -30.046875 C 24.125 -28.648438 24.84375 -26.632812 24.84375 -24 L 24.84375 -8.15625 C 24.84375 -5.519531 24.125 -3.5 22.6875 -2.09375 C 21.257812 -0.695312 19.226562 0 16.59375 0 Z M 16.59375 0 "/></g></g></g><g fill="rgb(72.549438%, 18.429565%, 15.689087%)" fill-opacity="1"><g transform="translate(161.92428, 265.374811)"><g><path d="M 12 -5.5 L 15.546875 -5.5 C 16.617188 -5.5 17.378906 -5.722656 17.828125 -6.171875 C 18.273438 -6.617188 18.5 -7.378906 18.5 -8.453125 L 18.5 -23.703125 C 18.5 -24.765625 18.273438 -25.519531 17.828125 -25.96875 C 17.378906 -26.425781 16.617188 -26.65625 15.546875 -26.65625 L 12 -26.65625 C 10.9375 -26.65625 10.1875 -26.425781 9.75 -25.96875 C 9.3125 -25.519531 9.09375 -24.765625 9.09375 -23.703125 L 9.09375 -8.453125 C 9.09375 -7.378906 9.3125 -6.617188 9.75 -6.171875 C 10.1875 -5.722656 10.9375 -5.5 12 -5.5 Z M 16.59375 0 L 11 0 C 8.363281 0 6.328125 -0.695312 4.890625 -2.09375 C 3.460938 -3.5 2.75 -5.519531 2.75 -8.15625 L 2.75 -24 C 2.75 -26.632812 3.460938 -28.648438 4.890625 -30.046875 C 6.328125 -31.453125 8.363281 -32.15625 11 -32.15625 L 16.59375 -32.15625 C 19.226562 -32.15625 21.257812 -31.453125 22.6875 -30.046875 C 24.125 -28.648438 24.84375 -26.632812 24.84375 -24 L 24.84375 -8.15625 C 24.84375 -5.519531 24.125 -3.5 22.6875 -2.09375 C 21.257812 -0.695312 19.226562 0 16.59375 0 Z M 16.59375 0 "/></g></g></g><g fill="rgb(72.549438%, 18.429565%, 15.689087%)" fill-opacity="1"><g transform="translate(189.520012, 265.374811)"><g><path d="M 16.296875 0 L 11 0 C 8.363281 0 6.328125 -0.695312 4.890625 -2.09375 C 3.460938 -3.5 2.75 -5.519531 2.75 -8.15625 L 2.75 -24 C 2.75 -26.632812 3.460938 -28.648438 4.890625 -30.046875 C 6.328125 -31.453125 8.363281 -32.15625 11 -32.15625 L 16.296875 -32.15625 C 18.898438 -32.15625 20.914062 -31.445312 22.34375 -30.03125 C 23.78125 -28.613281 24.5 -26.601562 24.5 -24 L 24.5 -22.5 C 24.5 -21.769531 24.148438 -21.40625 23.453125 -21.40625 L 19.203125 -21.40625 C 18.503906 -21.40625 18.15625 -21.769531 18.15625 -22.5 L 18.15625 -23.703125 C 18.15625 -24.765625 17.9375 -25.519531 17.5 -25.96875 C 17.0625 -26.425781 16.3125 -26.65625 15.25 -26.65625 L 12 -26.65625 C 10.96875 -26.65625 10.222656 -26.425781 9.765625 -25.96875 C 9.316406 -25.519531 9.09375 -24.765625 9.09375 -23.703125 L 9.09375 -8.453125 C 9.09375 -7.378906 9.316406 -6.617188 9.765625 -6.171875 C 10.222656 -5.722656 10.96875 -5.5 12 -5.5 L 15.25 -5.5 C 16.3125 -5.5 17.0625 -5.722656 17.5 -6.171875 C 17.9375 -6.617188 18.15625 -7.378906 18.15625 -8.453125 L 18.15625 -11.59375 C 18.15625 -11.96875 17.96875 -12.15625 17.59375 -12.15625 L 14.59375 -12.15625 C 13.894531 -12.15625 13.546875 -12.503906 13.546875 -13.203125 L 13.546875 -16.59375 C 13.546875 -17.300781 13.894531 -17.65625 14.59375 -17.65625 L 23.34375 -17.65625 C 24.113281 -17.65625 24.5 -17.269531 24.5 -16.5 L 24.5 -8.15625 C 24.5 -5.550781 23.78125 -3.539062 22.34375 -2.125 C 20.914062 -0.707031 18.898438 0 16.296875 0 Z M 16.296875 0 "/></g></g></g><g fill="rgb(72.549438%, 18.429565%, 15.689087%)" fill-opacity="1"><g transform="translate(216.765795, 265.374811)"><g><path d="M 20.75 0 L 4.296875 0 C 3.597656 0 3.25 -0.347656 3.25 -1.046875 L 3.25 -31.09375 C 3.25 -31.800781 3.597656 -32.15625 4.296875 -32.15625 L 8.546875 -32.15625 C 9.242188 -32.15625 9.59375 -31.800781 9.59375 -31.09375 L 9.59375 -6.09375 C 9.59375 -5.726562 9.796875 -5.546875 10.203125 -5.546875 L 20.75 -5.546875 C 21.414062 -5.546875 21.75 -5.179688 21.75 -4.453125 L 21.75 -1.046875 C 21.75 -0.347656 21.414062 0 20.75 0 Z M 20.75 0 "/></g></g></g><g fill="rgb(72.549438%, 18.429565%, 15.689087%)" fill-opacity="1"><g transform="translate(239.212316, 265.374811)"><g><path d="M 20.65625 0 L 4.296875 0 C 3.597656 0 3.25 -0.347656 3.25 -1.046875 L 3.25 -31.09375 C 3.25 -31.800781 3.597656 -32.15625 4.296875 -32.15625 L 20.65625 -32.15625 C 21.320312 -32.15625 21.65625 -31.800781 21.65625 -31.09375 L 21.65625 -27.703125 C 21.65625 -27.003906 21.320312 -26.65625 20.65625 -26.65625 L 10.203125 -26.65625 C 9.796875 -26.65625 9.59375 -26.46875 9.59375 -26.09375 L 9.59375 -19.59375 C 9.59375 -19.226562 9.796875 -19.046875 10.203125 -19.046875 L 18.75 -19.046875 C 19.445312 -19.046875 19.796875 -18.695312 19.796875 -18 L 19.796875 -14.59375 C 19.796875 -13.894531 19.445312 -13.546875 18.75 -13.546875 L 10.203125 -13.546875 C 9.796875 -13.546875 9.59375 -13.363281 9.59375 -13 L 9.59375 -6.046875 C 9.59375 -5.679688 9.796875 -5.5 10.203125 -5.5 L 20.65625 -5.5 C 21.320312 -5.5 21.65625 -5.148438 21.65625 -4.453125 L 21.65625 -1.046875 C 21.65625 -0.347656 21.320312 0 20.65625 0 Z M 20.65625 0 "/></g></g></g><g fill="rgb(72.549438%, 18.429565%, 15.689087%)" fill-opacity="1"><g transform="translate(108.585931, 295.124777)"><g><path d="M 6.734375 0 C 6.609375 0 6.507812 -0.0625 6.4375 -0.1875 L 4.59375 -4.28125 C 4.570312 -4.320312 4.535156 -4.34375 4.484375 -4.34375 L 3.125 -4.34375 C 3.0625 -4.34375 3.03125 -4.316406 3.03125 -4.265625 L 3.03125 -0.25 C 3.03125 -0.0820312 2.945312 0 2.78125 0 L 1.171875 0 C 1.003906 0 0.921875 -0.0820312 0.921875 -0.25 L 0.921875 -10.265625 C 0.921875 -10.429688 1.003906 -10.515625 1.171875 -10.515625 L 5.390625 -10.515625 C 6.023438 -10.515625 6.582031 -10.378906 7.0625 -10.109375 C 7.550781 -9.847656 7.925781 -9.476562 8.1875 -9 C 8.457031 -8.519531 8.59375 -7.96875 8.59375 -7.34375 C 8.59375 -6.664062 8.421875 -6.082031 8.078125 -5.59375 C 7.742188 -5.101562 7.273438 -4.757812 6.671875 -4.5625 C 6.640625 -4.550781 6.617188 -4.53125 6.609375 -4.5 C 6.597656 -4.476562 6.601562 -4.457031 6.625 -4.4375 L 8.609375 -0.296875 C 8.640625 -0.253906 8.65625 -0.210938 8.65625 -0.171875 C 8.65625 -0.117188 8.632812 -0.078125 8.59375 -0.046875 C 8.550781 -0.015625 8.5 0 8.4375 0 Z M 3.125 -8.6875 C 3.0625 -8.6875 3.03125 -8.65625 3.03125 -8.59375 L 3.03125 -6.078125 C 3.03125 -6.015625 3.0625 -5.984375 3.125 -5.984375 L 5.0625 -5.984375 C 5.488281 -5.984375 5.832031 -6.101562 6.09375 -6.34375 C 6.363281 -6.59375 6.5 -6.914062 6.5 -7.3125 C 6.5 -7.71875 6.363281 -8.046875 6.09375 -8.296875 C 5.832031 -8.554688 5.488281 -8.6875 5.0625 -8.6875 Z M 3.125 -8.6875 "/></g></g></g><g fill="rgb(72.549438%, 18.429565%, 15.689087%)" fill-opacity="1"><g transform="translate(118.538781, 295.124777)"><g><path d="M 8.203125 -8.9375 C 8.203125 -8.769531 8.117188 -8.6875 7.953125 -8.6875 L 3.125 -8.6875 C 3.0625 -8.6875 3.03125 -8.65625 3.03125 -8.59375 L 3.03125 -6.296875 C 3.03125 -6.234375 3.0625 -6.203125 3.125 -6.203125 L 6.25 -6.203125 C 6.425781 -6.203125 6.515625 -6.117188 6.515625 -5.953125 L 6.515625 -4.65625 C 6.515625 -4.476562 6.425781 -4.390625 6.25 -4.390625 L 3.125 -4.390625 C 3.0625 -4.390625 3.03125 -4.363281 3.03125 -4.3125 L 3.03125 -1.90625 C 3.03125 -1.84375 3.0625 -1.8125 3.125 -1.8125 L 7.953125 -1.8125 C 8.117188 -1.8125 8.203125 -1.726562 8.203125 -1.5625 L 8.203125 -0.25 C 8.203125 -0.0820312 8.117188 0 7.953125 0 L 1.171875 0 C 1.003906 0 0.921875 -0.0820312 0.921875 -0.25 L 0.921875 -10.25 C 0.921875 -10.414062 1.003906 -10.5 1.171875 -10.5 L 7.953125 -10.5 C 8.117188 -10.5 8.203125 -10.414062 8.203125 -10.25 Z M 8.203125 -8.9375 "/></g></g></g><g fill="rgb(72.549438%, 18.429565%, 15.689087%)" fill-opacity="1"><g transform="translate(128.041982, 295.124777)"><g><path d="M 4.46875 0.125 C 3.6875 0.125 3 -0.00390625 2.40625 -0.265625 C 1.820312 -0.523438 1.367188 -0.890625 1.046875 -1.359375 C 0.722656 -1.828125 0.5625 -2.378906 0.5625 -3.015625 L 0.5625 -3.265625 C 0.5625 -3.441406 0.648438 -3.53125 0.828125 -3.53125 L 2.40625 -3.53125 C 2.570312 -3.53125 2.65625 -3.460938 2.65625 -3.328125 L 2.65625 -3.125 C 2.65625 -2.71875 2.835938 -2.375 3.203125 -2.09375 C 3.566406 -1.820312 4.046875 -1.6875 4.640625 -1.6875 C 5.171875 -1.6875 5.5625 -1.800781 5.8125 -2.03125 C 6.0625 -2.257812 6.1875 -2.535156 6.1875 -2.859375 C 6.1875 -3.097656 6.109375 -3.300781 5.953125 -3.46875 C 5.796875 -3.632812 5.582031 -3.78125 5.3125 -3.90625 C 5.039062 -4.03125 4.601562 -4.203125 4 -4.421875 C 3.320312 -4.648438 2.753906 -4.882812 2.296875 -5.125 C 1.835938 -5.363281 1.445312 -5.691406 1.125 -6.109375 C 0.800781 -6.523438 0.640625 -7.039062 0.640625 -7.65625 C 0.640625 -8.25 0.796875 -8.769531 1.109375 -9.21875 C 1.421875 -9.675781 1.851562 -10.023438 2.40625 -10.265625 C 2.957031 -10.503906 3.59375 -10.625 4.3125 -10.625 C 5.0625 -10.625 5.738281 -10.488281 6.34375 -10.21875 C 6.945312 -9.945312 7.414062 -9.566406 7.75 -9.078125 C 8.082031 -8.597656 8.25 -8.035156 8.25 -7.390625 L 8.25 -7.25 C 8.25 -7.070312 8.164062 -6.984375 8 -6.984375 L 6.421875 -6.984375 C 6.253906 -6.984375 6.171875 -7.035156 6.171875 -7.140625 L 6.171875 -7.296875 C 6.171875 -7.710938 5.992188 -8.066406 5.640625 -8.359375 C 5.296875 -8.660156 4.828125 -8.8125 4.234375 -8.8125 C 3.753906 -8.8125 3.382812 -8.707031 3.125 -8.5 C 2.863281 -8.300781 2.734375 -8.03125 2.734375 -7.6875 C 2.734375 -7.4375 2.804688 -7.222656 2.953125 -7.046875 C 3.109375 -6.878906 3.335938 -6.722656 3.640625 -6.578125 C 3.941406 -6.441406 4.414062 -6.265625 5.0625 -6.046875 C 5.757812 -5.785156 6.3125 -5.554688 6.71875 -5.359375 C 7.125 -5.160156 7.488281 -4.863281 7.8125 -4.46875 C 8.144531 -4.070312 8.3125 -3.554688 8.3125 -2.921875 C 8.3125 -2.316406 8.148438 -1.78125 7.828125 -1.3125 C 7.515625 -0.851562 7.070312 -0.5 6.5 -0.25 C 5.925781 0 5.25 0.125 4.46875 0.125 Z M 4.46875 0.125 "/></g></g></g><g fill="rgb(72.549438%, 18.429565%, 15.689087%)" fill-opacity="1"><g transform="translate(137.665081, 295.124777)"><g><path d="M 8.078125 -10.5 C 8.253906 -10.5 8.34375 -10.414062 8.34375 -10.25 L 8.34375 -8.921875 C 8.34375 -8.753906 8.253906 -8.671875 8.078125 -8.671875 L 5.484375 -8.671875 C 5.429688 -8.671875 5.40625 -8.640625 5.40625 -8.578125 L 5.40625 -0.25 C 5.40625 -0.0820312 5.316406 0 5.140625 0 L 3.546875 0 C 3.367188 0 3.28125 -0.0820312 3.28125 -0.25 L 3.28125 -8.578125 C 3.28125 -8.640625 3.25 -8.671875 3.1875 -8.671875 L 0.671875 -8.671875 C 0.503906 -8.671875 0.421875 -8.753906 0.421875 -8.921875 L 0.421875 -10.25 C 0.421875 -10.414062 0.503906 -10.5 0.671875 -10.5 Z M 8.078125 -10.5 "/></g></g></g><g fill="rgb(72.549438%, 18.429565%, 15.689087%)" fill-opacity="1"><g transform="translate(147.183263, 295.124777)"><g><path d="M 7.671875 0 C 7.523438 0 7.425781 -0.0664062 7.375 -0.203125 L 6.953125 -1.609375 C 6.941406 -1.660156 6.914062 -1.6875 6.875 -1.6875 L 3.1875 -1.6875 C 3.144531 -1.6875 3.117188 -1.660156 3.109375 -1.609375 L 2.6875 -0.203125 C 2.632812 -0.0664062 2.539062 0 2.40625 0 L 0.65625 0 C 0.570312 0 0.507812 -0.0234375 0.46875 -0.078125 C 0.425781 -0.140625 0.421875 -0.207031 0.453125 -0.28125 L 3.640625 -10.296875 C 3.691406 -10.429688 3.789062 -10.5 3.9375 -10.5 L 6.140625 -10.5 C 6.273438 -10.5 6.367188 -10.429688 6.421875 -10.296875 L 9.609375 -0.28125 C 9.617188 -0.257812 9.625 -0.226562 9.625 -0.1875 C 9.625 -0.132812 9.601562 -0.0859375 9.5625 -0.046875 C 9.53125 -0.015625 9.476562 0 9.40625 0 Z M 3.625 -3.421875 C 3.613281 -3.347656 3.640625 -3.3125 3.703125 -3.3125 L 6.359375 -3.3125 C 6.421875 -3.3125 6.445312 -3.347656 6.4375 -3.421875 L 5.078125 -8 C 5.066406 -8.039062 5.050781 -8.0625 5.03125 -8.0625 C 5.007812 -8.0625 4.988281 -8.039062 4.96875 -8 Z M 3.625 -3.421875 "/></g></g></g><g fill="rgb(72.549438%, 18.429565%, 15.689087%)" fill-opacity="1"><g transform="translate(157.99045, 295.124777)"><g><path d="M 4.71875 0.125 C 3.945312 0.125 3.269531 -0.0234375 2.6875 -0.328125 C 2.101562 -0.628906 1.648438 -1.050781 1.328125 -1.59375 C 1.003906 -2.144531 0.84375 -2.773438 0.84375 -3.484375 L 0.84375 -10.25 C 0.84375 -10.414062 0.925781 -10.5 1.09375 -10.5 L 2.703125 -10.5 C 2.867188 -10.5 2.953125 -10.414062 2.953125 -10.25 L 2.953125 -3.46875 C 2.953125 -2.9375 3.113281 -2.503906 3.4375 -2.171875 C 3.769531 -1.847656 4.195312 -1.6875 4.71875 -1.6875 C 5.25 -1.6875 5.675781 -1.847656 6 -2.171875 C 6.332031 -2.503906 6.5 -2.9375 6.5 -3.46875 L 6.5 -10.25 C 6.5 -10.414062 6.582031 -10.5 6.75 -10.5 L 8.359375 -10.5 C 8.523438 -10.5 8.609375 -10.414062 8.609375 -10.25 L 8.609375 -3.484375 C 8.609375 -2.773438 8.445312 -2.144531 8.125 -1.59375 C 7.800781 -1.050781 7.34375 -0.628906 6.75 -0.328125 C 6.164062 -0.0234375 5.488281 0.125 4.71875 0.125 Z M 4.71875 0.125 "/></g></g></g><g fill="rgb(72.549438%, 18.429565%, 15.689087%)" fill-opacity="1"><g transform="translate(168.168121, 295.124777)"><g><path d="M 6.734375 0 C 6.609375 0 6.507812 -0.0625 6.4375 -0.1875 L 4.59375 -4.28125 C 4.570312 -4.320312 4.535156 -4.34375 4.484375 -4.34375 L 3.125 -4.34375 C 3.0625 -4.34375 3.03125 -4.316406 3.03125 -4.265625 L 3.03125 -0.25 C 3.03125 -0.0820312 2.945312 0 2.78125 0 L 1.171875 0 C 1.003906 0 0.921875 -0.0820312 0.921875 -0.25 L 0.921875 -10.265625 C 0.921875 -10.429688 1.003906 -10.515625 1.171875 -10.515625 L 5.390625 -10.515625 C 6.023438 -10.515625 6.582031 -10.378906 7.0625 -10.109375 C 7.550781 -9.847656 7.925781 -9.476562 8.1875 -9 C 8.457031 -8.519531 8.59375 -7.96875 8.59375 -7.34375 C 8.59375 -6.664062 8.421875 -6.082031 8.078125 -5.59375 C 7.742188 -5.101562 7.273438 -4.757812 6.671875 -4.5625 C 6.640625 -4.550781 6.617188 -4.53125 6.609375 -4.5 C 6.597656 -4.476562 6.601562 -4.457031 6.625 -4.4375 L 8.609375 -0.296875 C 8.640625 -0.253906 8.65625 -0.210938 8.65625 -0.171875 C 8.65625 -0.117188 8.632812 -0.078125 8.59375 -0.046875 C 8.550781 -0.015625 8.5 0 8.4375 0 Z M 3.125 -8.6875 C 3.0625 -8.6875 3.03125 -8.65625 3.03125 -8.59375 L 3.03125 -6.078125 C 3.03125 -6.015625 3.0625 -5.984375 3.125 -5.984375 L 5.0625 -5.984375 C 5.488281 -5.984375 5.832031 -6.101562 6.09375 -6.34375 C 6.363281 -6.59375 6.5 -6.914062 6.5 -7.3125 C 6.5 -7.71875 6.363281 -8.046875 6.09375 -8.296875 C 5.832031 -8.554688 5.488281 -8.6875 5.0625 -8.6875 Z M 3.125 -8.6875 "/></g></g></g><g fill="rgb(72.549438%, 18.429565%, 15.689087%)" fill-opacity="1"><g transform="translate(178.120972, 295.124777)"><g><path d="M 7.671875 0 C 7.523438 0 7.425781 -0.0664062 7.375 -0.203125 L 6.953125 -1.609375 C 6.941406 -1.660156 6.914062 -1.6875 6.875 -1.6875 L 3.1875 -1.6875 C 3.144531 -1.6875 3.117188 -1.660156 3.109375 -1.609375 L 2.6875 -0.203125 C 2.632812 -0.0664062 2.539062 0 2.40625 0 L 0.65625 0 C 0.570312 0 0.507812 -0.0234375 0.46875 -0.078125 C 0.425781 -0.140625 0.421875 -0.207031 0.453125 -0.28125 L 3.640625 -10.296875 C 3.691406 -10.429688 3.789062 -10.5 3.9375 -10.5 L 6.140625 -10.5 C 6.273438 -10.5 6.367188 -10.429688 6.421875 -10.296875 L 9.609375 -0.28125 C 9.617188 -0.257812 9.625 -0.226562 9.625 -0.1875 C 9.625 -0.132812 9.601562 -0.0859375 9.5625 -0.046875 C 9.53125 -0.015625 9.476562 0 9.40625 0 Z M 3.625 -3.421875 C 3.613281 -3.347656 3.640625 -3.3125 3.703125 -3.3125 L 6.359375 -3.3125 C 6.421875 -3.3125 6.445312 -3.347656 6.4375 -3.421875 L 5.078125 -8 C 5.066406 -8.039062 5.050781 -8.0625 5.03125 -8.0625 C 5.007812 -8.0625 4.988281 -8.039062 4.96875 -8 Z M 3.625 -3.421875 "/></g></g></g><g fill="rgb(72.549438%, 18.429565%, 15.689087%)" fill-opacity="1"><g transform="translate(188.92816, 295.124777)"><g><path d="M 1.171875 0 C 1.003906 0 0.921875 -0.0820312 0.921875 -0.25 L 0.921875 -10.25 C 0.921875 -10.414062 1.003906 -10.5 1.171875 -10.5 L 2.71875 -10.5 C 2.84375 -10.5 2.941406 -10.441406 3.015625 -10.328125 L 6.765625 -4.09375 C 6.785156 -4.050781 6.804688 -4.035156 6.828125 -4.046875 C 6.859375 -4.054688 6.875 -4.082031 6.875 -4.125 L 6.875 -10.25 C 6.875 -10.414062 6.957031 -10.5 7.125 -10.5 L 8.703125 -10.5 C 8.867188 -10.5 8.953125 -10.414062 8.953125 -10.25 L 8.953125 -0.25 C 8.953125 -0.0820312 8.867188 0 8.703125 0 L 7.171875 0 C 7.046875 0 6.945312 -0.0625 6.875 -0.1875 L 3.109375 -6.484375 C 3.085938 -6.523438 3.0625 -6.539062 3.03125 -6.53125 C 3.007812 -6.519531 3 -6.492188 3 -6.453125 L 3.015625 -0.25 C 3.015625 -0.0820312 2.929688 0 2.765625 0 Z M 1.171875 0 "/></g></g></g><g fill="rgb(72.549438%, 18.429565%, 15.689087%)" fill-opacity="1"><g transform="translate(199.5405, 295.124777)"><g><path d="M 8.078125 -10.5 C 8.253906 -10.5 8.34375 -10.414062 8.34375 -10.25 L 8.34375 -8.921875 C 8.34375 -8.753906 8.253906 -8.671875 8.078125 -8.671875 L 5.484375 -8.671875 C 5.429688 -8.671875 5.40625 -8.640625 5.40625 -8.578125 L 5.40625 -0.25 C 5.40625 -0.0820312 5.316406 0 5.140625 0 L 3.546875 0 C 3.367188 0 3.28125 -0.0820312 3.28125 -0.25 L 3.28125 -8.578125 C 3.28125 -8.640625 3.25 -8.671875 3.1875 -8.671875 L 0.671875 -8.671875 C 0.503906 -8.671875 0.421875 -8.753906 0.421875 -8.921875 L 0.421875 -10.25 C 0.421875 -10.414062 0.503906 -10.5 0.671875 -10.5 Z M 8.078125 -10.5 "/></g></g></g><g fill="rgb(72.549438%, 18.429565%, 15.689087%)" fill-opacity="1"><g transform="translate(209.058676, 295.124777)"><g/></g></g><g fill="rgb(72.549438%, 18.429565%, 15.689087%)" fill-opacity="1"><g transform="translate(212.806341, 295.124777)"><g><path d="M 9.71875 -0.3125 C 9.769531 -0.238281 9.796875 -0.1875 9.796875 -0.15625 C 9.796875 -0.113281 9.773438 -0.078125 9.734375 -0.046875 C 9.691406 -0.015625 9.632812 0 9.5625 0 L 7.796875 0 C 7.679688 0 7.578125 -0.046875 7.484375 -0.140625 L 6.9375 -0.734375 C 6.90625 -0.773438 6.863281 -0.78125 6.8125 -0.75 C 5.882812 -0.164062 4.890625 0.125 3.828125 0.125 C 2.890625 0.125 2.109375 -0.0976562 1.484375 -0.546875 C 0.867188 -0.992188 0.5625 -1.648438 0.5625 -2.515625 C 0.5625 -3.179688 0.738281 -3.742188 1.09375 -4.203125 C 1.445312 -4.660156 1.921875 -5.078125 2.515625 -5.453125 C 2.578125 -5.484375 2.585938 -5.523438 2.546875 -5.578125 C 2.046875 -6.160156 1.710938 -6.601562 1.546875 -6.90625 C 1.390625 -7.207031 1.3125 -7.519531 1.3125 -7.84375 C 1.3125 -8.675781 1.59375 -9.347656 2.15625 -9.859375 C 2.71875 -10.367188 3.457031 -10.625 4.375 -10.625 C 4.988281 -10.625 5.535156 -10.507812 6.015625 -10.28125 C 6.503906 -10.050781 6.882812 -9.726562 7.15625 -9.3125 C 7.4375 -8.894531 7.578125 -8.421875 7.578125 -7.890625 C 7.578125 -7.265625 7.398438 -6.738281 7.046875 -6.3125 C 6.691406 -5.882812 6.203125 -5.484375 5.578125 -5.109375 C 5.515625 -5.078125 5.507812 -5.039062 5.5625 -5 L 6.96875 -3.4375 C 6.988281 -3.414062 7.007812 -3.40625 7.03125 -3.40625 C 7.0625 -3.40625 7.082031 -3.414062 7.09375 -3.4375 C 7.414062 -3.757812 7.710938 -4.132812 7.984375 -4.5625 C 8.035156 -4.644531 8.101562 -4.6875 8.1875 -4.6875 C 8.226562 -4.6875 8.28125 -4.675781 8.34375 -4.65625 L 9.5 -3.984375 C 9.582031 -3.953125 9.625 -3.882812 9.625 -3.78125 C 9.625 -3.738281 9.609375 -3.6875 9.578125 -3.625 C 9.203125 -3.039062 8.789062 -2.5 8.34375 -2 C 8.300781 -1.957031 8.3125 -1.90625 8.375 -1.84375 C 8.738281 -1.40625 9.1875 -0.894531 9.71875 -0.3125 Z M 4.4375 -8.703125 C 4.125 -8.703125 3.878906 -8.625 3.703125 -8.46875 C 3.523438 -8.3125 3.4375 -8.101562 3.4375 -7.84375 C 3.4375 -7.71875 3.484375 -7.566406 3.578125 -7.390625 C 3.679688 -7.222656 3.90625 -6.9375 4.25 -6.53125 C 4.289062 -6.476562 4.332031 -6.46875 4.375 -6.5 C 4.726562 -6.71875 4.992188 -6.929688 5.171875 -7.140625 C 5.359375 -7.347656 5.453125 -7.582031 5.453125 -7.84375 C 5.453125 -8.101562 5.359375 -8.3125 5.171875 -8.46875 C 4.984375 -8.625 4.738281 -8.703125 4.4375 -8.703125 Z M 3.890625 -1.65625 C 4.410156 -1.65625 4.945312 -1.820312 5.5 -2.15625 C 5.5625 -2.1875 5.566406 -2.226562 5.515625 -2.28125 C 5.179688 -2.65625 4.910156 -2.953125 4.703125 -3.171875 C 4.691406 -3.179688 4.539062 -3.347656 4.25 -3.671875 L 3.890625 -4.0625 C 3.847656 -4.101562 3.800781 -4.109375 3.75 -4.078125 C 3.039062 -3.617188 2.6875 -3.128906 2.6875 -2.609375 C 2.6875 -2.304688 2.789062 -2.070312 3 -1.90625 C 3.21875 -1.738281 3.515625 -1.65625 3.890625 -1.65625 Z M 3.890625 -1.65625 "/></g></g></g><g fill="rgb(72.549438%, 18.429565%, 15.689087%)" fill-opacity="1"><g transform="translate(224.108137, 295.124777)"><g/></g></g><g fill="rgb(72.549438%, 18.429565%, 15.689087%)" fill-opacity="1"><g transform="translate(227.855802, 295.124777)"><g><path d="M 4.609375 0.125 C 3.828125 0.125 3.140625 -0.0234375 2.546875 -0.328125 C 1.960938 -0.640625 1.507812 -1.066406 1.1875 -1.609375 C 0.863281 -2.160156 0.703125 -2.800781 0.703125 -3.53125 L 0.703125 -6.984375 C 0.703125 -7.703125 0.863281 -8.335938 1.1875 -8.890625 C 1.507812 -9.441406 1.960938 -9.867188 2.546875 -10.171875 C 3.140625 -10.472656 3.828125 -10.625 4.609375 -10.625 C 5.378906 -10.625 6.054688 -10.476562 6.640625 -10.1875 C 7.222656 -9.90625 7.675781 -9.5 8 -8.96875 C 8.320312 -8.445312 8.484375 -7.84375 8.484375 -7.15625 C 8.484375 -7.0625 8.40625 -7.003906 8.25 -6.984375 L 6.640625 -6.890625 L 6.578125 -6.890625 C 6.441406 -6.890625 6.375 -6.910156 6.375 -6.953125 L 6.375 -7.046875 C 6.375 -7.578125 6.210938 -8.003906 5.890625 -8.328125 C 5.566406 -8.648438 5.140625 -8.8125 4.609375 -8.8125 C 4.066406 -8.8125 3.628906 -8.648438 3.296875 -8.328125 C 2.972656 -8.003906 2.8125 -7.578125 2.8125 -7.046875 L 2.8125 -3.4375 C 2.8125 -2.914062 2.972656 -2.492188 3.296875 -2.171875 C 3.628906 -1.847656 4.066406 -1.6875 4.609375 -1.6875 C 5.140625 -1.6875 5.566406 -1.847656 5.890625 -2.171875 C 6.210938 -2.492188 6.375 -2.914062 6.375 -3.4375 C 6.375 -3.488281 6.394531 -3.53125 6.4375 -3.5625 C 6.488281 -3.59375 6.550781 -3.601562 6.625 -3.59375 L 8.234375 -3.53125 C 8.398438 -3.507812 8.484375 -3.484375 8.484375 -3.453125 L 8.484375 -3.375 C 8.484375 -2.6875 8.320312 -2.078125 8 -1.546875 C 7.675781 -1.015625 7.222656 -0.601562 6.640625 -0.3125 C 6.054688 -0.0195312 5.378906 0.125 4.609375 0.125 Z M 4.609375 0.125 "/></g></g></g><g fill="rgb(72.549438%, 18.429565%, 15.689087%)" fill-opacity="1"><g transform="translate(237.71872, 295.124777)"><g><path d="M 7.671875 0 C 7.523438 0 7.425781 -0.0664062 7.375 -0.203125 L 6.953125 -1.609375 C 6.941406 -1.660156 6.914062 -1.6875 6.875 -1.6875 L 3.1875 -1.6875 C 3.144531 -1.6875 3.117188 -1.660156 3.109375 -1.609375 L 2.6875 -0.203125 C 2.632812 -0.0664062 2.539062 0 2.40625 0 L 0.65625 0 C 0.570312 0 0.507812 -0.0234375 0.46875 -0.078125 C 0.425781 -0.140625 0.421875 -0.207031 0.453125 -0.28125 L 3.640625 -10.296875 C 3.691406 -10.429688 3.789062 -10.5 3.9375 -10.5 L 6.140625 -10.5 C 6.273438 -10.5 6.367188 -10.429688 6.421875 -10.296875 L 9.609375 -0.28125 C 9.617188 -0.257812 9.625 -0.226562 9.625 -0.1875 C 9.625 -0.132812 9.601562 -0.0859375 9.5625 -0.046875 C 9.53125 -0.015625 9.476562 0 9.40625 0 Z M 3.625 -3.421875 C 3.613281 -3.347656 3.640625 -3.3125 3.703125 -3.3125 L 6.359375 -3.3125 C 6.421875 -3.3125 6.445312 -3.347656 6.4375 -3.421875 L 5.078125 -8 C 5.066406 -8.039062 5.050781 -8.0625 5.03125 -8.0625 C 5.007812 -8.0625 4.988281 -8.039062 4.96875 -8 Z M 3.625 -3.421875 "/></g></g></g><g fill="rgb(72.549438%, 18.429565%, 15.689087%)" fill-opacity="1"><g transform="translate(248.525902, 295.124777)"><g><path d="M 8.1875 -8.9375 C 8.1875 -8.769531 8.101562 -8.6875 7.9375 -8.6875 L 3.125 -8.6875 C 3.0625 -8.6875 3.03125 -8.65625 3.03125 -8.59375 L 3.03125 -6.296875 C 3.03125 -6.234375 3.0625 -6.203125 3.125 -6.203125 L 6.25 -6.203125 C 6.425781 -6.203125 6.515625 -6.117188 6.515625 -5.953125 L 6.515625 -4.65625 C 6.515625 -4.476562 6.425781 -4.390625 6.25 -4.390625 L 3.125 -4.390625 C 3.0625 -4.390625 3.03125 -4.363281 3.03125 -4.3125 L 3.03125 -0.25 C 3.03125 -0.0820312 2.945312 0 2.78125 0 L 1.171875 0 C 1.003906 0 0.921875 -0.0820312 0.921875 -0.25 L 0.921875 -10.25 C 0.921875 -10.414062 1.003906 -10.5 1.171875 -10.5 L 7.9375 -10.5 C 8.101562 -10.5 8.1875 -10.414062 8.1875 -10.25 Z M 8.1875 -8.9375 "/></g></g></g><g fill="rgb(72.549438%, 18.429565%, 15.689087%)" fill-opacity="1"><g transform="translate(257.669376, 295.124777)"><g><path d="M 8.203125 -8.9375 C 8.203125 -8.769531 8.117188 -8.6875 7.953125 -8.6875 L 3.125 -8.6875 C 3.0625 -8.6875 3.03125 -8.65625 3.03125 -8.59375 L 3.03125 -6.296875 C 3.03125 -6.234375 3.0625 -6.203125 3.125 -6.203125 L 6.25 -6.203125 C 6.425781 -6.203125 6.515625 -6.117188 6.515625 -5.953125 L 6.515625 -4.65625 C 6.515625 -4.476562 6.425781 -4.390625 6.25 -4.390625 L 3.125 -4.390625 C 3.0625 -4.390625 3.03125 -4.363281 3.03125 -4.3125 L 3.03125 -1.90625 C 3.03125 -1.84375 3.0625 -1.8125 3.125 -1.8125 L 7.953125 -1.8125 C 8.117188 -1.8125 8.203125 -1.726562 8.203125 -1.5625 L 8.203125 -0.25 C 8.203125 -0.0820312 8.117188 0 7.953125 0 L 1.171875 0 C 1.003906 0 0.921875 -0.0820312 0.921875 -0.25 L 0.921875 -10.25 C 0.921875 -10.414062 1.003906 -10.5 1.171875 -10.5 L 7.953125 -10.5 C 8.117188 -10.5 8.203125 -10.414062 8.203125 -10.25 Z M 8.203125 -8.9375 "/></g></g></g><g clip-path="url(#id1)"><path fill="rgb(93.728638%, 18.03894%, 19.60907%)" d="M 100.472656 49.484375 C 96.902344 53.046875 94.703125 57.972656 94.703125 63.414062 L 94.703125 71.3125 L 149.574219 129.464844 C 154.902344 127.351562 161.214844 128.449219 165.527344 132.773438 L 176.015625 143.265625 L 176 143.285156 C 176.097656 143.359375 176.199219 143.449219 176.289062 143.542969 L 200.738281 171.234375 C 201.035156 171.566406 201.015625 172.066406 200.703125 172.382812 C 200.386719 172.699219 199.886719 172.71875 199.554688 172.421875 L 171.875 147.953125 C 171.785156 147.878906 171.6875 147.769531 171.605469 147.675781 L 170.480469 148.808594 C 170.570312 148.898438 170.667969 148.972656 170.757812 149.066406 L 195.21875 176.757812 C 195.515625 177.089844 195.496094 177.609375 195.179688 177.925781 C 194.867188 178.242188 194.367188 178.242188 194.03125 177.945312 L 166.355469 153.476562 C 166.265625 153.402344 166.164062 153.292969 166.078125 153.21875 L 164.953125 154.332031 C 165.050781 154.421875 165.148438 154.496094 165.238281 154.589844 L 189.699219 182.28125 C 189.996094 182.613281 189.976562 183.113281 189.660156 183.449219 C 189.347656 183.746094 188.828125 183.765625 188.511719 183.46875 L 160.828125 159 C 160.734375 158.925781 160.636719 158.816406 160.554688 158.742188 L 159.433594 159.855469 C 159.53125 159.945312 159.628906 160.019531 159.71875 160.113281 L 184.171875 187.804688 C 184.46875 188.136719 184.449219 188.636719 184.136719 188.953125 C 183.820312 189.269531 183.316406 189.285156 182.984375 188.992188 L 155.304688 164.523438 C 155.226562 164.449219 155.117188 164.359375 155.039062 164.246094 L 144.546875 153.757812 C 140.238281 149.457031 139.136719 143.152344 141.238281 137.816406 L 94.703125 93.851562 L 94.703125 176.070312 C 94.703125 186.953125 103.519531 195.773438 114.398438 195.773438 L 226.988281 195.773438 C 232.433594 195.773438 237.363281 193.570312 240.917969 190.011719 L 100.472656 49.484375 " fill-opacity="1" fill-rule="nonzero"/></g><g clip-path="url(#id2)"><path fill="rgb(72.549438%, 18.429565%, 15.689087%)" d="M 230.621094 119.746094 C 234.675781 111.109375 231.859375 98.996094 223.003906 90.128906 C 212.316406 79.441406 190.550781 71.167969 182.230469 79.496094 C 173.90625 87.824219 182.175781 109.597656 192.867188 120.285156 C 201.71875 129.152344 213.835938 131.960938 222.449219 127.910156 L 279.953125 188.859375 L 279.953125 196.757812 C 279.953125 202.207031 277.746094 207.136719 274.191406 210.695312 L 133.734375 70.167969 C 137.292969 66.601562 142.21875 64.394531 147.65625 64.394531 L 260.257812 64.394531 C 271.132812 64.394531 279.953125 73.21875 279.953125 84.101562 L 279.953125 166.339844 L 230.621094 119.746094 " fill-opacity="1" fill-rule="nonzero"/></g></svg>